Coordinates
version=1
nRows=7
nColumns=40
inDegrees=yes

Units are S.I. units (second, meters, Newtons, ...)
Angles are in degrees.

endheader
time	pelvis_tilt	pelvis_list	pelvis_rotation	pelvis_tx	pelvis_ty	pelvis_tz	hip_flexion_r	hip_adduction_r	hip_rotation_r	knee_angle_r	knee_angle_r_beta	ankle_angle_r	subtalar_angle_r	mtp_angle_r	hip_flexion_l	hip_adduction_l	hip_rotation_l	knee_angle_l	knee_angle_l_beta	ankle_angle_l	subtalar_angle_l	mtp_angle_l	lumbar_extension	lumbar_bending	lumbar_rotation	arm_flex_r	arm_add_r	arm_rot_r	elbow_flex_r	pro_sup_r	wrist_flex_r	wrist_dev_r	arm_flex_l	arm_add_l	arm_rot_l	elbow_flex_l	pro_sup_l	wrist_flex_l	wrist_dev_l
     33.53792857	     -2.47103196	     -4.88961513	     -8.33268293	      0.86308106	      0.93218882	      0.40308136	     21.00153305	     -3.24621467	     -6.01967365	     20.10429884	     20.10429884	      7.08092797	      4.91592382	      0.06653067	      4.45625777	     -2.79843181	    -11.71066978	     18.10214025	     18.10214025	     18.06401160	    -11.50834179	      1.84836132	     -8.08723367	      6.61203298	      1.70064949	    -16.24554945	    -10.63700211	     -4.04064900	     28.60045774	     45.99918030	      0.00000000	      0.00000000	     29.36522476	    -17.88293241	     -6.83579207	     64.80335811	     47.73699150	      0.00000000	      0.00000000
     33.56085714	     -2.46547774	     -4.66485599	     -8.70874300	      0.86420871	      0.93195561	      0.40631067	     20.74047813	     -3.19707391	     -7.00141405	     18.32623253	     18.32623253	      7.23472887	      7.99748054	      2.15923096	      3.38232061	     -2.62498764	    -12.43746266	     16.89245899	     16.89245899	     17.54035505	    -10.93353259	      0.16457182	     -7.86691641	      6.28547220	      1.43029603	    -17.27643816	    -10.65428569	     -3.56057627	     29.78261818	     45.90813821	      0.00000000	      0.00000000	     28.96241571	    -18.20625954	     -8.29660745	     68.52651232	     47.88497136	      0.00000000	      0.00000000
     33.58378571	     -2.40500051	     -4.55449039	     -9.01793039	      0.86568151	      0.93169663	      0.40981203	     20.28972695	     -2.90895643	     -7.39160839	     16.84380957	     16.84380957	      7.00262740	      9.68573747	      3.24708357	      2.29442243	     -2.54773360	    -12.87939269	     15.83496454	     15.83496454	     17.16558442	    -10.67183535	     -1.03214875	     -7.63849573	      6.08557958	      1.27701234	    -17.88295558	    -10.75582508	     -2.66112679	     30.17611514	     45.83240889	      0.00000000	      0.00000000	     28.97760574	    -18.33254375	     -9.41423728	     70.91897941	     47.98410807	      0.00000000	      0.00000000
     33.60671429	     -2.35016041	     -4.42238243	     -9.27482409	      0.86750516	      0.93132096	      0.41347375	     19.85731675	     -2.64383057	     -7.50552147	     15.86385671	     15.86385671	      6.61612380	     10.66863201	      3.37644614	      1.24699838	     -2.45553971	    -13.27785602	     14.90794255	     14.90794255	     17.26397522	    -10.18000871	     -1.13837865	     -7.33474563	      5.91202765	      1.57140864	    -18.40874120	    -10.71431908	     -2.48588986	     30.03074549	     45.82403687	      0.00000000	      0.00000000	     29.50444442	    -18.15442298	     -9.64981957	     72.06124851	     48.02003653	      0.00000000	      0.00000000
     33.62964286	     -2.24828983	     -4.29094200	     -9.47327907	      0.86964190	      0.93085733	      0.41729604	     19.49864314	     -2.46276713	     -7.61494551	     15.56044171	     15.56044171	      6.31988706	     11.38196787	      2.93236553	      0.16893566	     -2.37664999	    -13.67824195	     14.04867274	     14.04867274	     17.37362927	     -9.60829237	     -1.35989018	     -7.11347389	      5.74237347	      1.80183962	    -18.78939034	    -10.79330947	     -2.37346515	     30.02897273	     45.81576282	      0.00000000	      0.00000000	     29.80011701	    -17.97915525	    -10.06203065	     73.56172369	     48.07224535	      0.00000000	      0.00000000
     33.65257143	     -2.14770560	     -4.16068854	     -9.59486383	      0.87205591	      0.93029072	      0.42124418	     19.19212207	     -2.30177797	     -7.50213333	     15.70746436	     15.70746436	      6.11466743	     11.46172829	      1.89216182	     -0.86666801	     -2.31566227	    -14.02411748	     13.28447553	     13.28447553	     17.49826527	     -9.06965630	     -1.57547307	     -6.89385721	      5.60462817	      1.89174727	    -18.97393128	    -10.95273047	     -2.29950998	     30.11349738	     45.80883246	      0.00000000	      0.00000000	     29.82069759	    -17.78615981	    -10.60798028	     75.20040815	     48.13362073	      0.00000000	      0.00000000
     33.67550000	     -2.09016020	     -4.07991260	     -9.61563199	      0.87456184	      0.92966446	      0.42536152	     18.96093178	     -2.09214778	     -7.18069357	     16.16960890	     16.16960890	      5.90355877	     10.93026366	      0.50741117	     -1.73241387	     -2.35822347	    -14.20644558	     12.76547753	     12.76547753	     17.66844526	     -8.67564037	     -1.69688460	     -6.64831299	      5.53018152	      1.82601221	    -18.97320333	    -11.21682231	     -2.24998831	     30.19312788	     45.80587025	      0.00000000	      0.00000000	     29.73572391	    -17.68030489	    -11.20042386	     76.67289115	     48.19437732	      0.00000000	      0.00000000
